<?xml version="1.0" encoding="UTF-8"?> <svg xmlns="http://www.w3.org/2000/svg" width="149" height="127" viewBox="0 0 149 127" fill="none"> <path d="M149 127V0H74.5H0V127H149Z" fill="#191919"></path> <path d="M70.5295 68.0615C69.7981 68.0615 69.2234 68.6368 69.2234 69.3689L69.2756 79.7237V80.4558C69.2756 81.188 69.8503 81.7632 70.5817 81.7632C71.3132 81.7632 71.8878 81.188 71.8878 80.4558V69.3689C71.8356 68.6368 71.2609 68.0615 70.5295 68.0615Z" fill="white"></path> <path d="M70.5297 65.1334C71.2511 65.1334 71.8358 64.548 71.8358 63.826C71.8358 63.1039 71.2511 62.5186 70.5297 62.5186C69.8084 62.5186 69.2236 63.1039 69.2236 63.826C69.2236 64.548 69.8084 65.1334 70.5297 65.1334Z" fill="white"></path> <path d="M77.112 62.5713C76.4328 62.5713 75.8582 63.1466 75.8059 63.8264L75.8582 79.7246V80.4567C75.8582 81.1889 76.4328 81.7641 77.1643 81.7641C77.8957 81.7641 78.4704 81.1889 78.4704 80.4567V63.8264C78.3659 63.1466 77.7912 62.5713 77.112 62.5713Z" fill="white"></path> <path d="M84.8443 80.4563V63.826C84.8443 63.0938 84.2696 62.5186 83.5382 62.5186C82.859 62.5186 82.2843 63.0938 82.2321 63.7737L82.2843 79.6718V80.404C82.2843 81.1361 82.859 81.7114 83.5904 81.7114C84.2696 81.7637 84.8443 81.2407 84.8443 80.4563C84.8443 80.5086 84.8443 80.5086 84.8443 80.4563Z" fill="white"></path> <path d="M48.4826 11.0068H35.3171C34.6902 11.0068 34.22 11.4775 34.22 12.1051C34.22 12.7326 34.6902 13.2033 35.3171 13.2033H40.5937V28.8923C40.5937 29.5721 41.1684 30.1474 41.8476 30.1474C42.5268 30.1474 43.1015 29.5721 43.1015 28.8923V13.2033H48.4303C49.0573 13.2033 49.5275 12.7326 49.5275 12.1051C49.5797 11.4775 49.1095 11.0068 48.4826 11.0068Z" fill="white"></path> <path d="M59.8195 24.1333C61.0211 24.1333 61.5435 23.5581 61.3346 22.4075C61.2301 21.6754 61.0733 20.9432 60.8121 20.2634C60.1329 18.433 58.8268 17.1779 56.8938 16.7595C52.6098 15.7659 49.0572 18.2238 48.4825 22.5644C48.1168 25.3884 49.4229 28.1079 51.8261 29.363C54.3861 30.6704 57.782 30.4089 59.8195 28.6308C59.8717 28.6308 59.8717 28.5785 59.924 28.5785C59.924 28.5785 59.9762 28.5785 59.9762 28.5262C60.1852 28.3171 60.3419 28.0033 60.3419 27.6895C60.3419 27.0619 59.8195 26.539 59.1926 26.539C58.9313 26.539 58.7224 26.6436 58.5134 26.7482C58.3044 26.905 58.0954 27.0619 57.8865 27.2188C55.1698 29.0492 51.4082 27.428 51.0425 24.1333H52.0874C54.6996 24.1333 57.2595 24.1333 59.8195 24.1333ZM51.0425 21.8323C51.2515 19.6358 53.7592 18.4853 55.3787 18.5376C57.0505 18.5899 58.8268 19.6358 58.9313 21.8323H51.0425Z" fill="white"></path> <path d="M75.4405 50.0718C76.6421 50.0718 77.1645 49.4965 76.9555 48.346C76.851 47.6139 76.6943 46.8817 76.4331 46.2018C75.7539 44.3715 74.4478 43.1163 72.5148 42.698C68.2308 41.7043 64.6782 44.1623 64.1035 48.5029C63.7378 51.3269 65.0439 54.0463 67.4471 55.3015C70.0071 56.6089 73.4029 56.3474 75.4405 54.5693C75.4927 54.5693 75.4927 54.517 75.5449 54.517C75.5449 54.517 75.5972 54.517 75.5972 54.4647C75.8062 54.2555 75.9629 53.9418 75.9629 53.628C75.9629 53.0004 75.4405 52.4774 74.8135 52.4774C74.5523 52.4774 74.3433 52.582 74.1343 52.6866C73.9254 52.8435 73.7164 53.0004 73.5074 53.1573C70.7907 54.9877 67.0292 53.3665 66.6635 50.0718H67.7083C70.2683 50.0718 72.8805 50.0718 75.4405 50.0718ZM66.6635 47.7707C66.8724 45.5743 69.3801 44.4238 70.9997 44.4761C72.6715 44.5284 74.4478 45.5743 74.5523 47.7707H66.6635Z" fill="white"></path> <path d="M75.597 21.2041C75.5448 19.0076 74.2909 17.3864 72.2534 16.8111C70.1114 16.2359 68.0217 16.5497 66.0886 17.6479C65.9319 17.7002 65.8274 17.8048 65.7229 17.8571C65.514 18.014 65.3572 18.2754 65.3572 18.5892C65.3572 19.1122 65.8274 19.5829 66.3499 19.5829C66.5066 19.5829 66.6633 19.5306 66.7678 19.4783C66.8201 19.426 66.9245 19.426 67.029 19.3737C68.1262 18.7984 69.2755 18.4323 70.5816 18.5369C72.4102 18.6938 73.1416 19.7398 73.1416 21.8316C72.4102 21.8316 71.6265 21.7793 70.8428 21.8316C69.2233 21.9362 67.5515 22.1454 66.0886 22.9298C64.7825 23.6097 64.1556 24.7079 64.2078 26.1722C64.2078 27.6365 64.8348 28.7348 66.1409 29.4146C68.2306 30.5652 71.1041 30.1991 72.8281 28.5779C72.9848 28.4733 73.0893 28.3164 73.3506 28.1595C73.3506 28.3687 73.4028 28.944 73.4028 29.0486C73.455 29.6238 73.9252 30.0945 74.5522 30.0945C75.1269 30.0945 75.597 29.6238 75.7015 29.0486C75.597 29.1531 75.6493 23.662 75.597 21.2041ZM68.3351 28.0549C67.447 27.7934 66.8723 27.2182 66.7678 26.4337C66.6633 25.5447 67.029 24.8648 67.9172 24.3941C69.589 23.6097 71.3653 23.662 73.1416 23.662C73.1416 26.9567 71.2086 28.7871 68.3351 28.0549Z" fill="white"></path> <path d="M89.3374 26.9042C89.0762 26.9042 88.8672 27.0088 88.6582 27.1134C88.6582 27.1134 88.606 27.1134 88.606 27.1657C88.5537 27.218 88.5015 27.2703 88.4492 27.2703C86.7252 28.4731 84.3219 28.1593 83.0158 26.4858C81.762 24.9169 81.6053 22.3544 82.7024 20.6809C84.0085 18.589 86.5684 18.0661 88.606 19.5827C88.6582 19.635 88.6582 19.635 88.7104 19.635C88.7627 19.635 88.7627 19.6873 88.8149 19.6873L88.8672 19.7396C89.0239 19.7918 89.1806 19.8441 89.3374 19.8441C89.9643 19.8441 90.4867 19.3212 90.4867 18.6936C90.4867 18.3275 90.33 18.0661 90.0688 17.8569L90.0166 17.8046C89.7031 17.5431 89.2851 17.2816 88.9194 17.1247C85.0534 15.3989 79.411 17.3862 79.3588 23.348C79.3588 27.6363 82.5979 30.565 86.8297 30.1466C88.0313 30.042 89.1806 29.7282 90.0688 28.8915C90.33 28.6823 90.4867 28.3685 90.4867 28.0024C90.4867 27.4272 89.9643 26.9042 89.3374 26.9042Z" fill="white"></path> <path d="M52.5576 76.2204C52.5576 76.1681 52.5576 76.1159 52.5576 76.1159C52.5054 74.6516 51.774 73.1872 50.4156 72.3505C49.5797 71.8275 48.5871 71.4615 47.5944 71.0954C47.49 71.0431 47.3855 70.9908 47.3332 70.9908C47.281 70.9385 47.1765 70.9385 47.1243 70.8862C46.2361 70.5201 45.348 70.3632 44.512 69.8926C43.4149 69.3173 43.0492 68.376 43.2582 67.1731C43.4672 65.8134 44.7733 64.9767 46.4451 64.8721C47.7512 64.7675 48.7438 65.2382 49.7365 66.0226C49.9454 66.1795 50.2066 66.2841 50.4679 66.2841C51.1993 66.2841 51.774 65.7088 51.774 64.9767C51.774 64.506 51.5128 64.0876 51.147 63.8784C50.9903 63.7738 50.8858 63.6693 50.7291 63.617C48.0124 62.205 45.348 62.2573 42.7358 63.8262C39.8101 65.6042 39.7056 70.5201 43.1537 72.1413C43.9374 72.5074 44.8255 72.7689 45.6092 73.1349C45.8704 73.2395 46.1839 73.3441 46.4451 73.4487H46.4973C47.1765 73.7102 47.8557 73.9717 48.4826 74.2855C49.3707 74.7561 49.9454 75.5406 49.9454 76.5342C49.9977 78.1554 48.7438 79.3059 46.9675 79.6197C45.2957 79.8812 43.9374 79.306 42.6835 78.26C42.4745 78.0508 42.1611 77.9462 41.8476 77.9462C41.1162 77.9462 40.5415 78.5215 40.5415 79.2537C40.5415 79.5674 40.6982 79.8812 40.9072 80.1427C40.9072 80.1427 40.9072 80.1427 40.9595 80.195C41.0117 80.2473 41.1162 80.2996 41.1684 80.3519C42.579 81.4501 44.2508 81.8685 46.6018 81.8685C47.2287 81.8685 48.1691 81.7116 49.1095 81.2932C49.2663 81.2409 49.3707 81.1886 49.5275 81.084C49.6842 80.9794 49.8409 80.9271 50.0499 80.8226C51.7217 79.8289 52.5576 78.0508 52.5576 76.3773C52.5576 76.2727 52.5576 76.2204 52.5576 76.2204Z" fill="white"></path> <path d="M60.0283 54.4129C60.0283 53.4716 60.0283 42.7507 60.0283 37.8349C60.0283 37.8349 60.0283 37.8349 60.0283 37.7826C60.0283 37.0504 59.4536 36.4751 58.7222 36.4751C58.252 36.4751 57.8863 36.6843 57.6773 37.0504L50.2586 49.0263L42.8922 37.0504C42.6833 36.6843 42.2653 36.4228 41.7951 36.4228C41.0637 36.4228 40.489 36.9981 40.489 37.7303C40.489 37.7303 40.489 37.7303 40.489 37.7826C40.489 42.6984 40.489 53.4716 40.489 54.3606C40.489 54.4129 40.489 54.4129 40.489 54.4129C40.5413 55.0928 41.0637 55.6157 41.7429 55.6157C42.422 55.6157 42.9967 55.0928 42.9967 54.4129V54.3606V45.7317V42.2801L49.1093 52.0595C49.3183 52.4779 49.7362 52.7917 50.2586 52.7917C50.7811 52.7917 51.199 52.4779 51.408 52.0595L57.4683 42.3324V45.784V54.4129V54.4652C57.5206 55.145 58.043 55.668 58.7222 55.668C58.9312 55.668 59.1401 55.6157 59.2969 55.5111C59.6626 55.3019 59.976 54.8836 59.976 54.4129C60.0283 54.4652 60.0283 54.4652 60.0283 54.4129Z" fill="white"></path> <path d="M66.2456 79.5673L60.9689 74.233L65.0962 70.1016C65.3052 69.8924 65.4619 69.5786 65.4619 69.2648C65.4619 68.6373 64.9395 68.1143 64.3126 68.1143C63.9991 68.1143 63.7379 68.2189 63.5289 68.4281L59.0359 72.9256V63.826C59.0359 63.0938 58.4612 62.5186 57.7298 62.5186C57.0506 62.5186 56.476 63.0938 56.4237 63.7737L56.4759 79.6718V80.404C56.4759 81.1361 57.0506 81.7114 57.7821 81.7114C58.5135 81.7114 59.0882 81.1361 59.0882 80.404V75.9065L64.3648 81.1884C64.5738 81.5022 64.9395 81.7114 65.3574 81.7114C66.0889 81.7114 66.6635 81.1361 66.6635 80.404C66.6113 80.1425 66.5068 79.8287 66.2456 79.5673Z" fill="white"></path> <path d="M105.69 21.0995C105.585 18.014 102.816 16.0791 99.786 16.7589C98.5844 17.0204 97.7485 17.5434 96.9649 18.5893C96.9649 17.8572 96.9649 12.6275 96.9649 12.3137C96.9649 11.6339 96.3902 11.0586 95.711 11.0586C94.9796 11.0586 94.4572 11.6339 94.4572 12.3137V12.366C94.4572 17.7526 94.4572 23.4006 94.4572 28.7349C94.4572 28.7349 94.4572 28.7349 94.4572 28.7872C94.4572 28.7872 94.4572 28.7871 94.4572 28.8394C94.5094 29.5193 95.0318 30.0423 95.711 30.0423C96.4424 30.0423 96.9649 29.467 96.9649 28.7872V28.7349C97.0171 26.7476 96.9126 23.9759 97.0171 21.9886C97.0694 20.9427 97.5918 20.2105 98.4277 19.5829C100.204 18.1709 102.503 19.6875 103.025 21.884C103.13 22.4593 103.182 22.773 103.182 23.3483C103.182 25.231 103.182 27.0091 103.234 28.8917V28.944V28.9963C103.234 29.0486 103.234 29.0486 103.234 29.0486V29.1009C103.339 29.7285 103.861 30.1992 104.488 30.1992C105.063 30.1992 105.533 29.8331 105.69 29.3624C105.742 29.2578 105.794 29.1009 105.794 28.944C105.742 26.4861 105.742 23.5052 105.69 21.0995Z" fill="white"></path> <path d="M27.4803 27.8982L20.3751 20.7859C20.2184 20.629 20.2184 20.3675 20.3751 20.1584L27.4281 13.0983C27.6893 12.8368 27.846 12.4184 27.7938 11.9478C27.6893 11.4248 27.2713 11.0587 26.8011 10.9541C26.3309 10.8496 25.913 11.0064 25.6518 11.3202L17.345 19.5831C17.136 19.7923 16.9792 20.1583 16.9792 20.4721C16.9792 20.8382 17.136 21.152 17.345 21.3612L25.5995 29.6763C25.8607 29.9901 26.3309 30.147 26.7489 30.0424C27.2713 29.9378 27.6893 29.5194 27.7415 29.0488C27.8983 28.5781 27.7415 28.1597 27.4803 27.8982Z" fill="#FBDC0C"></path> <path d="M121.938 79.5672L129.043 72.4549C129.2 72.298 129.2 72.0365 129.043 71.8273L121.99 64.7672C121.729 64.5058 121.572 64.0874 121.624 63.6167C121.729 63.0938 122.147 62.7277 122.617 62.6231C123.087 62.5185 123.505 62.6754 123.766 62.9892L132.073 71.252C132.282 71.4612 132.439 71.8273 132.439 72.1411C132.439 72.5072 132.282 72.8209 132.073 73.0301L123.818 81.293C123.557 81.6068 123.087 81.7637 122.669 81.6591C122.147 81.5545 121.729 81.1361 121.676 80.6654C121.52 80.247 121.676 79.8287 121.938 79.5672Z" fill="#FBDC0C"></path> <path d="M117.445 64.6626C117.601 64.4534 117.654 64.1919 117.654 63.9305C117.654 63.1983 117.079 62.623 116.347 62.623C115.877 62.623 115.459 62.8845 115.25 63.2506L104.958 79.9332C104.854 80.1424 104.802 80.3516 104.802 80.5608C104.802 81.2929 105.376 81.8682 106.108 81.8682C106.578 81.8682 106.996 81.6067 107.205 81.2406L117.445 64.6626Z" fill="#FBDC0C"></path> <path d="M96.7038 74.495C95.9201 74.1289 95.032 73.9197 94.1961 73.6582C93.6736 73.5013 93.1512 73.3968 92.681 73.1876C91.7928 72.8215 91.3749 72.2985 91.4271 71.5664C91.4794 70.7819 92.0018 70.259 92.9422 70.0498C94.3528 69.6837 95.3454 70.0498 96.3903 71.0434C96.5993 71.2526 96.8605 71.3572 97.174 71.3572C97.8009 71.3572 98.3233 70.8342 98.3233 70.2067C98.3233 69.8929 98.1666 69.5791 97.9576 69.3699C96.9128 68.3763 95.5022 68.0625 94.0916 68.0625C92.89 68.0625 91.6884 68.2717 90.6957 69.0038C89.4941 69.7883 88.9194 70.9911 88.9717 72.3508C89.0762 73.7628 89.9643 74.6519 91.2182 75.1748C91.7928 75.4363 92.4198 75.5409 92.9945 75.7501C93.6736 75.9593 94.405 76.1162 95.032 76.3777C95.9724 76.7437 96.3903 77.319 96.3381 78.0511C96.2858 78.8879 95.7111 79.5155 94.7708 79.7769C93.5169 80.0907 92.4198 79.7769 91.3749 79.0448C91.1137 78.8879 90.6957 78.5218 90.4345 78.3649H90.3823C90.2255 78.2603 90.0165 78.208 89.8076 78.208C89.1806 78.208 88.6582 78.731 88.6582 79.3586C88.6582 79.6723 88.7627 79.9338 88.9717 80.143C89.0239 80.2476 89.1284 80.3522 89.2329 80.4045C91.4271 82.1826 93.8826 82.3918 96.4948 81.3981C98.0621 80.7706 98.8458 79.5155 98.898 77.842C98.9503 76.1685 98.1144 75.1225 96.7038 74.495Z" fill="white"></path> </svg> 